<svg id="Layer_1" data-name="Layer 1" xmlns="http://www.w3.org/2000/svg" viewBox="0 0 338.55 338.55"><defs><style>.cls-1{fill:#cdcccc;}.cls-2{fill:#fff;}.cls-3{fill:none;stroke:#cdcccc;stroke-miterlimit:10;stroke-width:7px;}</style></defs><path class="cls-1" d="M158.93,200.32l.12.18.25-.38Z" transform="translate(-6.58 -6.16)"/><path class="cls-1" d="M94.06,238.05l.1.09h.11l-.09,0Z" transform="translate(-6.58 -6.16)"/><path class="cls-1" d="M224.91,236.76l-.89-.1.38.43h.68Z" transform="translate(-6.58 -6.16)"/><path class="cls-1" d="M245.64,177c1.08,3.47,3.25,7.91,5.67,7.91h.51Z" transform="translate(-6.58 -6.16)"/><path class="cls-1" d="M148.25,147.12l3.27-.17-.57,3.22a9.76,9.76,0,0,1-1.34,3.53l.76,1,3.66-.92,3.15-14.84,20.45-30.08-13.37,40.26-3.94-9.33-3.93,20.34-3.72,2.41.92.44-.31,1.92a8.37,8.37,0,0,1-.21.92,3.21,3.21,0,0,0,.47.25l3-.34-.4,3.26a11.64,11.64,0,0,1-2,5.2l4.06,4.79L153,180.33c.52,2.46,1.4,4.51,2,4.84l3.47-.51-.56,3.49a5.65,5.65,0,0,1-1.22,2.59c.89,1.5,2.16,3,3.33,3.11l2.93.35c5.71-9.42,9.78-17,11.23-19.82l-2.92-6,6.64-3.32.15.33.16-.33,6.64,3.32-2.92,6c1.4,2.68,5.22,9.85,10.6,18.79a10.56,10.56,0,0,0,.89-1.32,5.64,5.64,0,0,1-1.21-2.58l-.57-3.49,3.48.5c.25-.15,1-1,1.65-3.39.14-.5.26-1,.35-1.45l-5.22-1.38,4.05-4.78a11.75,11.75,0,0,1-2-5.2l-.41-3.26,2.59.29-10.26-28.62,12.19,16.11,1.94-.7a10.52,10.52,0,0,1-.83-2.62l-.59-3.22,3.27.17c.29,0,1.07-.52,2.06-2.38l-26.69-47.2L155.6,135.1l-10,8.47C146.89,146.39,147.92,147.12,148.25,147.12Z" transform="translate(-6.58 -6.16)"/><polygon class="cls-1" points="238.13 169.64 237.28 169.84 237.54 169.87 238.19 169.71 238.13 169.64"/><path class="cls-1" d="M79.73,224a4.07,4.07,0,0,0,.5,0,8.06,8.06,0,0,0,2.69-.57l-.57-3.42,2.36.35L87,218.23a7.43,7.43,0,0,1-1.14-.68L80,213.36l7.15-.49a5.07,5.07,0,0,0,2.5-.94,3.69,3.69,0,0,1-.46-1l-1-3.58,3.7.32h.15a1.75,1.75,0,0,0,1.36-.94l-6.68-1.05,5.33-3.77a6.91,6.91,0,0,1-1.16-2.56L90.25,196l3.38.22h0l-.47-1.7,2.47-.71a3.7,3.7,0,0,0,1.18-.56l-3.7-.83,3.69-2.81a6.18,6.18,0,0,1-.62-1.37l-.84-2.76-1.9,3L88,187.65l-10.22,8.9,24-38.14-2.36,20.77-3.57,5.64,3,.09h.07c2.72,0,5.14-5.62,6-9.16L106,176l.26,0-1.42-.34,0-.07,2.52.28,2.49-.27v.06l-1.4.34.25,0,1.17-.29c.87,3.48,3.21,9,5.88,9.15l-1.1-.64-2-9.32-3.14.42,2.36-9.75,9.35,19.11,3.08.45a2.14,2.14,0,0,0,.64-.79l-2.82-5.16-1-.27.54-.64-19.19-35.16L69.86,200.36l-7.08-11L38,226.22l-12.58,7.2L49,225.79,64,212.65l13,11Z" transform="translate(-6.58 -6.16)"/><path class="cls-1" d="M326.3,234.27,283,194.86l-14.15,11.86-14.8-18.93-.14.47a6.18,6.18,0,0,1-.62,1.37l3.68,2.81-3.69.83a3.7,3.7,0,0,0,1.18.56l2.47.71-.47,1.7h0l3.38-.22-.69,3.34a7.08,7.08,0,0,1-1.16,2.56l5.33,3.77-6.69,1.05a1.74,1.74,0,0,0,1.36.94h.16l3.7-.32-1,3.58a3,3,0,0,1-.3.74l1.14.93a4.35,4.35,0,0,0,1.21.27l7.15.49-4,2.86,8.73,7.17.94-.14-.37.6,12.69,10.42-4.72-22.89Zm-57.82-23.73,7.08,2.54.39-9.75,3.94,19.5Z" transform="translate(-6.58 -6.16)"/><path class="cls-1" d="M222.59,163.23l1.75.83L224,166a9.06,9.06,0,0,1-.21.93,4.63,4.63,0,0,0,.47.25l3-.34-.4,3.26a11.68,11.68,0,0,1-2,5.2l4.06,4.78-5.23,1.38c.52,2.47,1.4,4.52,2,4.84l3.47-.5-.56,3.49a5.67,5.67,0,0,1-1.22,2.58,9.68,9.68,0,0,0,2,2.44l1.61-.46a3.7,3.7,0,0,0,1.18-.56l-3.69-.83,2.89-2.2-1.07-3.44,1.06.88-.87-2.88,3.61.11h.07c2.73,0,5.14-5.62,6-9.16l1.17.29.26,0-1.41-.34v-.07l2.51.28,1.85-.2-.91-1.17-4.32-.42-11-14.83-8.16.64A5.64,5.64,0,0,0,222.59,163.23Z" transform="translate(-6.58 -6.16)"/><path class="cls-1" d="M272.35,241.89c0-.69-10.23-1.32-26.83-1.77V234.3c.46.74,2,.74,2,.74l-.65-2c4.18,4.27,8.08,2.69,8.08,2.69l-1.12-2.32c1.4,1.39,4.65,1,4.65,1L256.85,232c2,1.58,7.33,1.58,7.33,1.58l-1.58-2.79c1.39,1.58,4.18,1.39,4.18,1.39l-2.32-3.43c4.46.93,6.31-2.14,6.31-2.14-3.25.47-7.15-2-7.15-2a2.11,2.11,0,0,0,1-1.48c-3.71.55-6.5-4-6.5-4l1.95-.28-2.32-2.23a7.39,7.39,0,0,0,5-1.21c-4-.28-6.32-3.9-6.32-3.9,1.67-.28,1.95-1.3,1.95-1.3-4.27.37-5.29-5.57-5.29-5.57l3.53-.56-3.16-2.22a4,4,0,0,0,3.16-3.07c-1.39.09-3.9-1.3-3.9-1.3.74-.18,1-1.21,1-1.21a6.28,6.28,0,0,1-4.46-4.82l1.68-.38-1.95-1.48c1.76,0,2.41-2.14,2.41-2.14-5.66.18-8.31-9.63-8.68-11.13v-.19a.66.66,0,0,0,0,.09l0-.09v.19c-.37,1.5-3,11.31-8.68,11.13,0,0,.65,2.14,2.42,2.14l-1.95,1.48,1.67.38a6.28,6.28,0,0,1-4.46,4.82s.28,1,1,1.21a10.77,10.77,0,0,1-3.76,1.31,7.46,7.46,0,0,0,1.49-1.3c-4-.46-6.32-6.52-6.32-6.52a2.84,2.84,0,0,0,2-2.17c-4.27.62-5.29-9.31-5.29-9.31l3.53-.94-3.16-3.72c2.6-.62,3.16-5.12,3.16-5.12-1.39.15-3.9-2.18-3.9-2.18.74-.31,1-2,1-2-3.9-1.87-4.46-8.08-4.46-8.08l1.67-.62-2-2.48c1.77,0,2.42-3.57,2.42-3.57-5.66.29-8.31-16.1-8.68-18.62v-.32l0,.16c0-.1,0-.16,0-.16v.32c-.37,2.52-3,18.91-8.68,18.62,0,0,.65,3.57,2.41,3.57l-2,2.48,1.68.62s-.56,6.21-4.46,8.08c0,0,.28,1.7,1,2,0,0-2.51,2.33-3.9,2.18,0,0,.56,4.5,3.16,5.12l-3.16,3.72,3.53.94s-1,9.93-5.29,9.31a2.82,2.82,0,0,0,1.95,2.17,15.51,15.51,0,0,1-3,4.75,277,277,0,0,0,21.63,30.88,5.61,5.61,0,0,1-.59-.06s1.85,3.06,6.3,2.14h0l-1.26,1.87-1.89-.9v3.35c-21-23.4-38.86-58.64-38.86-58.64l2.37-4.87-1.95-1-1.4,3-1.39-3-1.95,1,2.37,4.87s-17.83,35.24-38.86,58.64V229.7L135.45,231l-.14,8h2.92v-2.5l25.21-34L140.6,239l5.18.48c-13.62.13-25.77.35-35.63.62V234.3c.46.74,2,.74,2,.74l-.65-2c4.18,4.27,8.08,2.69,8.08,2.69l-1.12-2.32c1.39,1.39,4.64,1,4.64,1L121.47,232c2,1.58,7.34,1.58,7.34,1.58l-1.58-2.79c1.39,1.58,4.18,1.39,4.18,1.39l-1-1.55a7.29,7.29,0,0,0,3.73-2.72,4.92,4.92,0,0,0,1.28-1.26l-.41,2.16,5.5-2.61v.88a245.63,245.63,0,0,0,15.89-21.71,21.91,21.91,0,0,1-1.27-2.71l1.95-.47-2.32-3.72c2.7.77,5-2,5-2-4-.47-6.32-6.52-6.32-6.52a2.85,2.85,0,0,0,2-2.17c-4.27.62-5.29-9.32-5.29-9.32l3.53-.93-3.16-3.72c2.6-.63,3.16-5.13,3.16-5.13-1.39.16-3.9-2.17-3.9-2.17.74-.31,1-2,1-2-3.9-1.86-4.46-8.07-4.46-8.07l1.67-.62-2-2.49c1.77,0,2.42-3.57,2.42-3.57-5.66.29-8.31-16.1-8.68-18.61v-.32l0,.16c0-.1,0-.16,0-.16v.32c-.37,2.51-3,18.9-8.68,18.61,0,0,.65,3.57,2.41,3.57l-2,2.49,1.68.62s-.56,6.21-4.46,8.07c0,0,.28,1.71,1,2,0,0-2.51,2.33-3.9,2.17,0,0,.56,4.5,3.16,5.13l-3.16,3.72,3.53.93s-1,9.94-5.29,9.32a2.83,2.83,0,0,0,2,2.17s-2.33,6.05-6.32,6.52c0,0,2.32,2.79,5,2l-2.32,3.72,1.94.47s-1.81,5-4.47,6.38a9.35,9.35,0,0,1-2.07-4.34l3.53-.56-3.16-2.22a4,4,0,0,0,3.16-3.07c-1.4.09-3.9-1.3-3.9-1.3.74-.18,1-1.21,1-1.21A6.28,6.28,0,0,1,114,191.5l1.67-.38-2-1.48c1.77,0,2.42-2.14,2.42-2.14-5.66.18-8.31-9.63-8.68-11.13v-.19l0,.09a.66.66,0,0,0,0-.09v.19c-.37,1.5-3,11.31-8.68,11.13,0,0,.65,2.14,2.41,2.14l-2,1.48,1.67.38a6.26,6.26,0,0,1-4.45,4.82s.28,1,1,1.21c0,0-2.51,1.39-3.9,1.3a4,4,0,0,0,3.16,3.07l-3.16,2.22,3.53.56s-1,5.94-5.29,5.57c0,0,.27,1,1.94,1.3,0,0-2.32,3.62-6.31,3.9a7.39,7.39,0,0,0,5,1.21L90,218.89l1.95.28s-2.78,4.54-6.5,4a2.14,2.14,0,0,0,1,1.48s-3.9,2.42-7.15,2c0,0,1.85,3.07,6.31,2.14l-2.32,3.43s2.78.19,4.18-1.39L86,233.56s5.29,0,7.33-1.58l-1.67,2.41s3.25.37,4.64-1l-1.11,2.32s3.9,1.58,8.08-2.69l-.65,2s1.58,0,2-.74v6c-13,.43-20.84,1-20.84,1.59,0,.88,16.87,1.66,42.44,2.11-7.46.42-11.86.92-11.86,1.47,0,1,13.28,1.79,32.88,2.22-11.91.46-19.59,1.19-19.59,2,0,1.4,22.57,2.53,50.41,2.53s50.42-1.13,50.42-2.53c0-.81-7.68-1.54-19.6-2,19.61-.43,32.89-1.26,32.89-2.22,0-.55-4.4-1.05-11.87-1.47C255.48,243.55,272.35,242.77,272.35,241.89Zm-56.68-15.24v-.47l.87.41A6.36,6.36,0,0,1,215.67,226.65Zm-80.13-.88-.16.82-.38,0C135.18,226.36,135.36,226.07,135.54,225.77Zm93.33-26.86a4,4,0,0,0,3.14,3l-3.16,2.22,3.53.56s-.6,3.49-2.81,5c-2.25-1.83-3.74-5.89-3.74-5.89l1.95-.46-2.32-3.73A4.21,4.21,0,0,0,228.87,198.91Zm-66.34,40.48-3.27-6.2L170,218.42l-9.75,14.9,3.38,6.07Zm15.53,0q-6.76,0-13.28,0l13.28-31.22,13.29,31.22C187,239.36,182.57,239.36,178.06,239.36Zm15.54,0h-1.09l3.38-6.07-9.75-14.9,10.73,14.77ZM240,240c-8.64-.2-18.66-.36-29.64-.47l5.18-.48-22.84-36.48,25.21,34V239h2.92L220.7,232a4.26,4.26,0,0,0,2.21-1.21l-1.58,2.79s5.29,0,7.34-1.58L227,234.39s3.25.37,4.65-1l-1.12,2.32s3.9,1.58,8.08-2.69l-.65,2s1.58,0,2-.74Z" transform="translate(-6.58 -6.16)"/><path class="cls-2" d="M122.71,287.91a3.94,3.94,0,0,1-4.56-4.57v-5a3.92,3.92,0,0,1,4.54-4.56h2.65a4.61,4.61,0,0,1,3,.83,3.59,3.59,0,0,1,1.08,2.69.5.5,0,0,1-.11.45.58.58,0,0,1-.43.15.56.56,0,0,1-.61-.58,2.43,2.43,0,0,0-.74-1.87,3.6,3.6,0,0,0-2.19-.52h-2.65a5,5,0,0,0-2,.32,2,2,0,0,0-1.07,1.07,5.14,5.14,0,0,0-.32,2v5a5.09,5.09,0,0,0,.33,2,2,2,0,0,0,1.07,1.07,5,5,0,0,0,2,.33h2.63a3.67,3.67,0,0,0,2.19-.52,2.46,2.46,0,0,0,.74-1.88.56.56,0,0,1,.61-.58.54.54,0,0,1,.43.16.5.5,0,0,1,.11.44,3.57,3.57,0,0,1-1.08,2.69,4.55,4.55,0,0,1-3,.84Z" transform="translate(-6.58 -6.16)"/><path class="cls-2" d="M137.84,287.91a2.85,2.85,0,0,1-3.29-3.3,2.86,2.86,0,0,1,3.29-3.3h5a2.68,2.68,0,0,0-.65-2,3.11,3.11,0,0,0-2.14-.58h-1.27a5.08,5.08,0,0,0-2,.3,1.34,1.34,0,0,0-.8,1,.88.88,0,0,1-.21.41.55.55,0,0,1-.4.12.58.58,0,0,1-.44-.16.45.45,0,0,1-.11-.43,2.25,2.25,0,0,1,1.13-1.82,5.81,5.81,0,0,1,2.86-.57H140A3.4,3.4,0,0,1,144,281.5v5.83a.51.51,0,0,1-.57.58.52.52,0,0,1-.58-.58v-1.09a4.08,4.08,0,0,1-3.75,1.67Zm0-1.15h1.23a6.58,6.58,0,0,0,1.87-.24,2.78,2.78,0,0,0,1.29-.76,2.31,2.31,0,0,0,.59-1.4v-1.89h-5a2.17,2.17,0,1,0,0,4.29Z" transform="translate(-6.58 -6.16)"/><path class="cls-2" d="M161.65,277.54a3.15,3.15,0,0,1,2.53.9,4.65,4.65,0,0,1,.76,3v5.94a.58.58,0,0,1-1.15,0v-5.94a3.47,3.47,0,0,0-.49-2.08,2,2,0,0,0-1.65-.64h-.91a2.75,2.75,0,0,0-2.05.64,2.9,2.9,0,0,0-.62,2.08v5.94a.5.5,0,0,1-.57.57.51.51,0,0,1-.58-.57v-5.94a3.4,3.4,0,0,0-.49-2.08,1.93,1.93,0,0,0-1.64-.64h-.91a2.74,2.74,0,0,0-2,.64,2.9,2.9,0,0,0-.62,2.08v5.94a.58.58,0,0,1-1.15,0v-9.22a.58.58,0,0,1,1.15,0V279a2.87,2.87,0,0,1,1.14-1.11,3.61,3.61,0,0,1,1.68-.34h.76a3.61,3.61,0,0,1,1.84.4,2.68,2.68,0,0,1,1.1,1.31,3.19,3.19,0,0,1,1.19-1.31,3.58,3.58,0,0,1,1.82-.4Z" transform="translate(-6.58 -6.16)"/><path class="cls-2" d="M171.6,292.29a.52.52,0,0,1-.58-.58V278.13a.51.51,0,0,1,.58-.57.5.5,0,0,1,.57.57v1a3,3,0,0,1,1.42-1.16,6,6,0,0,1,2.35-.39h.83a3.4,3.4,0,0,1,3.94,3.94V284a3.4,3.4,0,0,1-3.94,4h-4.6v3.8A.51.51,0,0,1,171.6,292.29Zm.57-5.53h4.6a2.32,2.32,0,0,0,2.79-2.8V281.5a2.32,2.32,0,0,0-2.79-2.79h-.83a5.35,5.35,0,0,0-2.69.55,2.19,2.19,0,0,0-1.08,1.69Z" transform="translate(-6.58 -6.16)"/><path class="cls-2" d="M187.55,283.18v.8a3,3,0,0,0,.62,2.16,3.08,3.08,0,0,0,2.19.62h1.79a4.23,4.23,0,0,0,2-.36,1.52,1.52,0,0,0,.74-1.23.91.91,0,0,1,.19-.42.57.57,0,0,1,.42-.14.61.61,0,0,1,.44.16.58.58,0,0,1,.11.44,2.64,2.64,0,0,1-1.1,2,5,5,0,0,1-2.81.66h-1.79a4.1,4.1,0,0,1-3-1,4,4,0,0,1-1-3V281.5a3.39,3.39,0,0,1,4-3.94h1.79a3.4,3.4,0,0,1,3.94,3.94v1.1a.5.5,0,0,1-.56.58Zm2.81-4.47a2.31,2.31,0,0,0-2.81,2.79V282h7.39v-.53a2.32,2.32,0,0,0-2.79-2.79Z" transform="translate(-6.58 -6.16)"/><path class="cls-2" d="M202.66,287.91a.52.52,0,0,1-.58-.58v-9.2a.51.51,0,0,1,.58-.57.5.5,0,0,1,.57.57v1.69a3.93,3.93,0,0,1,1.65-1.68,5.4,5.4,0,0,1,2.56-.58.58.58,0,1,1,0,1.15,4.71,4.71,0,0,0-3,.88,3.4,3.4,0,0,0-1.18,2.52v5.22A.51.51,0,0,1,202.66,287.91Z" transform="translate(-6.58 -6.16)"/><path class="cls-2" d="M210.31,287.91a.57.57,0,0,1-.63-.65v-.41a.56.56,0,0,1,.63-.63h.41a.55.55,0,0,1,.62.63v.41c0,.43-.2.65-.62.65Z" transform="translate(-6.58 -6.16)"/><path class="cls-2" d="M220.2,287.91a3.12,3.12,0,0,1-2.28-.72,3.08,3.08,0,0,1-.73-2.27V273.3a.58.58,0,1,1,1.15,0v11.62a2,2,0,0,0,.39,1.45,2.09,2.09,0,0,0,1.46.39.58.58,0,1,1,0,1.15Z" transform="translate(-6.58 -6.16)"/><path class="cls-2" d="M226.34,287.91a.51.51,0,0,1-.58-.58v-14a.58.58,0,1,1,1.15,0v9.09l5.56-4.77a.5.5,0,0,1,.8.05.52.52,0,0,1-.05.82l-4,3.46,4.38,5a.51.51,0,0,1-.06.81.5.5,0,0,1-.81-.05l-4.4-5-1.39,1.19v3.43A.51.51,0,0,1,226.34,287.91Z" transform="translate(-6.58 -6.16)"/><circle class="cls-3" cx="169.28" cy="169.28" r="165.78"/></svg>