<svg id="Layer_1" data-name="Layer 1" xmlns="http://www.w3.org/2000/svg" viewBox="0 0 24.01 28"><defs><style>.cls-1{fill:#fff;}</style></defs><g id="Shops"><path class="cls-1" d="M27.92,24.08l-2.24-13A4.72,4.72,0,0,0,21.14,7H21A5,5,0,0,0,11,7h-.14a4.72,4.72,0,0,0-4.54,4.08l-2.24,13a5.24,5.24,0,0,0,1.13,4.29A4.47,4.47,0,0,0,8.62,30H23.38a4.47,4.47,0,0,0,3.41-1.63A5.24,5.24,0,0,0,27.92,24.08ZM16,4a3,3,0,0,1,3,3H13A3,3,0,0,1,16,4Zm9.26,23.08a2.47,2.47,0,0,1-1.88.92H8.62a2.47,2.47,0,0,1-1.88-.92,3.2,3.2,0,0,1-.69-2.66l2.24-13A2.74,2.74,0,0,1,10.86,9H21.14a2.74,2.74,0,0,1,2.57,2.42l2.24,13A3.2,3.2,0,0,1,25.26,27.08Z" transform="translate(-4 -2)"/></g></svg>